<?xml version="1.0" encoding="UTF-8"?><svg id="base" xmlns="http://www.w3.org/2000/svg" viewBox="0 0 198.77 67.36"><path d="M37.61,50.55V16.47h4.78v34.08h-4.78ZM40.65,42.77l.7-7.17,15.05-19.12h5.88l-21.63,26.3ZM57.86,50.55l-10.83-18.19,3.77-3.49,12.91,21.68h-5.86Z" style="fill:#1d1d1b;"/><path d="M70.73,29.43l-3-2,6.7-6.88,3.45,2.37-7.15,6.52ZM67.94,50.55v-20.13h4.78v20.13h-4.78Z" style="fill:#1d1d1b;"/><path d="M79.98,50.55v-20.13h4.78v20.13h-4.78ZM94.75,50.55v-12.2c0-1.42-.44-2.52-1.32-3.3-.88-.78-2.14-1.16-3.76-1.16s-2.77.34-3.62,1.03-1.28,1.65-1.28,2.89l-.49-3.88c.75-1.22,1.73-2.15,2.94-2.81s2.55-.99,4.02-.99c2.64,0,4.68.71,6.13,2.14s2.17,3.45,2.17,6.06v12.22h-4.78Z" style="fill:#1d1d1b;"/><path d="M117.72,50.9c-2.38,0-4.45-.53-6.23-1.58s-3.16-2.54-4.15-4.44-1.48-4.13-1.48-6.68v-9.35c0-2.56.49-4.8,1.48-6.7s2.37-3.39,4.15-4.44,3.86-1.58,6.23-1.58c1.97,0,3.77.42,5.4,1.27s3,2.02,4.1,3.54,1.85,3.29,2.24,5.32h-4.9c-.3-1.09-.79-2.05-1.49-2.87s-1.51-1.46-2.45-1.91-1.91-.68-2.91-.68c-2.09,0-3.78.74-5.05,2.21s-1.91,3.43-1.91,5.85v9.35c0,2.42.64,4.37,1.91,5.84s2.96,2.2,5.05,2.2c1.48,0,2.88-.47,4.2-1.41s2.2-2.29,2.65-4.05h4.9c-.39,2.03-1.14,3.8-2.25,5.32s-2.48,2.7-4.1,3.54-3.42,1.27-5.39,1.27Z" style="fill:#1d1d1b;"/><path d="M142.85,51.85c-3.19,0-5.66-.81-7.41-2.42s-2.62-3.88-2.62-6.8v-3.44c0-2.89.88-5.14,2.62-6.73s4.22-2.38,7.41-2.38,5.66.79,7.41,2.38,2.62,3.83,2.62,6.73v3.51c0,2.91-.88,5.16-2.62,6.76s-4.22,2.39-7.41,2.39ZM142.85,47.9c1.67,0,2.96-.46,3.88-1.37s1.37-2.19,1.37-3.83v-3.51c0-1.64-.46-2.91-1.37-3.81s-2.21-1.35-3.88-1.35-2.95.45-3.87,1.35-1.38,2.17-1.38,3.81v3.51c0,1.64.46,2.92,1.38,3.83s2.21,1.37,3.87,1.37Z" style="fill:#1d1d1b;"/><path d="M164.64,51.36c-2.69,0-4.76-.75-6.22-2.25s-2.19-3.62-2.19-6.35v-4.67c0-2.74.71-4.87,2.14-6.37s3.44-2.25,6.04-2.25c1.44,0,2.75.33,3.95.98s2.16,1.57,2.89,2.75l-.49,4.32c0-.9-.19-1.66-.56-2.3s-.92-1.12-1.63-1.46-1.57-.5-2.59-.5c-1.58,0-2.8.43-3.67,1.28s-1.3,2.06-1.3,3.61v4.61c0,1.54.43,2.72,1.3,3.56s2.09,1.25,3.67,1.25c1.02,0,1.88-.17,2.59-.52s1.25-.85,1.63-1.5.56-1.43.56-2.34l.33,4.46c-.44.95-1.19,1.8-2.26,2.56s-2.46,1.13-4.18,1.13ZM170.76,50.99v-29.63h4.78v29.63h-4.78Z" style="fill:#1d1d1b;"/><path d="M189.56,51.85c-3.39,0-6.02-.82-7.88-2.47s-2.79-3.98-2.79-7.01v-2.38c0-3.15.89-5.59,2.68-7.32s4.31-2.59,7.56-2.59c3.06,0,5.43.98,7.11,2.93s2.52,4.7,2.52,8.23v1.39h-16.41v-3.34h11.86c-.14-1.71-.65-3.05-1.54-4.02s-2.07-1.45-3.55-1.45c-1.8,0-3.2.52-4.2,1.55s-1.5,2.49-1.5,4.38v2.69c0,1.75.54,3.1,1.61,4.04s2.57,1.41,4.51,1.41c.97,0,1.93-.17,2.88-.51s1.8-.82,2.55-1.43l3.14,2.73c-1.2,1.01-2.55,1.78-4.05,2.33s-3.01.83-4.52.83Z" style="fill:#1d1d1b;"/><path d="M32.98,17.03c-8.67,0-15.7,7.45-15.7,16.64s7.03,16.64,15.7,16.64V17.03Z" style="stroke:#1d1d1b; stroke-miterlimit:10; stroke-width:2px;"/><path d="M31.71,14V0v14Z" style="fill:none; stroke:#1d1d1b; stroke-miterlimit:10; stroke-width:4px;"/><line x1="31.71" y1="67.36" x2="31.71" y2="53.36" style="fill:none; stroke:#1d1d1b; stroke-miterlimit:10; stroke-width:4px;"/><line x1="14" y1="33.51" x2="0" y2="33.51" style="fill:none; stroke:#1d1d1b; stroke-miterlimit:10; stroke-width:4px;"/><line x1="19.86" y1="19.48" x2="13.41" y2="13.03" style="fill:none; stroke:#1d1d1b; stroke-miterlimit:10; stroke-width:4px;"/><line x1="13.43" y1="54.99" x2="19.84" y2="47.75" style="fill:none; stroke:#1d1d1b; stroke-miterlimit:10; stroke-width:4px;"/></svg>